<?xml version="1.0" standalone="no"?>
<!DOCTYPE svg PUBLIC "-//W3C//DTD SVG 20010904//EN"
 "http://www.w3.org/TR/2001/REC-SVG-20010904/DTD/svg10.dtd">
<svg version="1.0" xmlns="http://www.w3.org/2000/svg"
 width="32.000000pt" height="32.000000pt" viewBox="0 0 32.000000 32.000000"
 preserveAspectRatio="xMidYMid meet">

<g transform="translate(0.000000,32.000000) scale(0.100000,-0.100000)"
fill="#000000" stroke="none">
<path d="M25 295 c-24 -23 -25 -31 -25 -135 0 -104 1 -112 25 -135 23 -24 31
-25 135 -25 104 0 112 1 135 25 22 21 25 33 25 100 0 97 -17 98 -22 0 -2 -42
-9 -80 -16 -87 -8 -8 -49 -14 -112 -16 -96 -4 -100 -3 -125 23 -26 25 -27 29
-23 125 2 64 8 104 16 112 8 8 46 14 97 17 107 4 101 21 -6 21 -72 0 -82 -3
-104 -25z"/>
<path d="M221 269 c-23 -29 -41 -56 -41 -60 0 -20 20 -6 51 36 32 42 59 58 59
34 0 -6 -16 -31 -36 -55 -51 -62 -32 -70 22 -9 45 52 52 73 32 93 -23 23 -46
12 -87 -39z"/>
</g>
</svg>
